<?xml version="1.0" encoding="UTF-8"?>
<!DOCTYPE svg PUBLIC "-//W3C//DTD SVG 1.1//EN" "http://www.w3.org/Graphics/SVG/1.1/DTD/svg11.dtd">
<svg xmlns="http://www.w3.org/2000/svg" version="1.1" width="1024px" height="1024px" style="shape-rendering:geometricPrecision; text-rendering:geometricPrecision; image-rendering:optimizeQuality; fill-rule:evenodd; clip-rule:evenodd" xmlns:xlink="http://www.w3.org/1999/xlink">
<g><path style="opacity:1" fill="#e5e5e1" d="M -0.5,-0.5 C 340.833,-0.5 682.167,-0.5 1023.5,-0.5C 1023.5,340.833 1023.5,682.167 1023.5,1023.5C 682.167,1023.5 340.833,1023.5 -0.5,1023.5C -0.5,682.167 -0.5,340.833 -0.5,-0.5 Z"/></g>
<g><path style="opacity:1" fill="#fdfdfc" d="M 604.5,283.5 C 604.389,282.883 604.056,282.383 603.5,282C 547.665,281.168 491.998,281.335 436.5,282.5C 435.833,282.5 435.5,282.833 435.5,283.5C 434.226,282.811 434.226,281.977 435.5,281C 491.833,280.333 548.167,280.333 604.5,281C 605.774,281.977 605.774,282.811 604.5,283.5 Z"/></g>
<g><path style="opacity:1" fill="#1b2129" d="M 604.5,283.5 C 604.5,283.833 604.5,284.167 604.5,284.5C 548.402,283.837 492.402,283.171 436.5,282.5C 491.998,281.335 547.665,281.168 603.5,282C 604.056,282.383 604.389,282.883 604.5,283.5 Z"/></g>
<g><path style="opacity:1" fill="#1b212a" d="M 875.5,292.5 C 876.42,289.492 877.754,286.659 879.5,284C 851.169,283.5 822.835,283.333 794.5,283.5C 808.651,282.167 823.151,281.501 838,281.5C 852.5,281.833 867,282.167 881.5,282.5C 879.977,286.229 877.977,289.562 875.5,292.5 Z"/></g>
<g><path style="opacity:1" fill="#08233c" d="M 436.5,282.5 C 492.402,283.171 548.402,283.837 604.5,284.5C 635.717,343.264 667.217,401.931 699,460.5C 699.383,459.944 699.883,459.611 700.5,459.5C 700.435,459.938 700.601,460.272 701,460.5C 717.247,432.003 732.414,403.003 746.5,373.5C 746.75,371.326 747.75,369.659 749.5,368.5C 764.513,341.519 779.513,313.852 794.5,285.5C 794.376,284.893 794.043,284.56 793.5,284.5C 793.5,283.833 793.833,283.5 794.5,283.5C 822.835,283.333 851.169,283.5 879.5,284C 877.754,286.659 876.42,289.492 875.5,292.5C 831.198,378.44 785.865,463.774 739.5,548.5C 738.89,549.391 738.557,550.391 738.5,551.5C 738.167,551.5 737.833,551.5 737.5,551.5C 736.5,609.762 736.167,668.762 736.5,728.5C 711.167,728.5 685.833,728.5 660.5,728.5C 660.832,668.664 660.499,608.998 659.5,549.5C 657.684,547.882 656.351,545.882 655.5,543.5C 609.512,459.527 563.512,375.527 517.5,291.5C 465.856,354.979 414.022,418.312 362,481.5C 361.333,482.167 361.333,482.833 362,483.5C 425.243,563.685 487.743,644.351 549.5,725.5C 549.414,726.496 549.748,727.329 550.5,728C 514.835,728.5 479.168,728.667 443.5,728.5C 386.167,655.167 328.833,581.833 271.5,508.5C 270.974,506.77 269.974,505.436 268.5,504.5C 267.501,578.998 267.167,653.665 267.5,728.5C 240.661,728.831 213.995,728.498 187.5,727.5C 188.5,580.001 188.833,432.334 188.5,284.5C 214.5,284.5 240.5,284.5 266.5,284.5C 266.168,352.002 266.501,419.335 267.5,486.5C 267.833,486.5 268.167,486.5 268.5,486.5C 269.5,486.167 270.167,485.5 270.5,484.5C 271.5,483.167 272.5,481.833 273.5,480.5C 327.47,414.858 381.47,349.191 435.5,283.5C 435.5,282.833 435.833,282.5 436.5,282.5 Z"/></g>
<g><path style="opacity:1" fill="#0e1523" d="M 793.5,284.5 C 794.043,284.56 794.376,284.893 794.5,285.5C 779.513,313.852 764.513,341.519 749.5,368.5C 763.644,340.211 778.311,312.211 793.5,284.5 Z"/></g>
<g><path style="opacity:1" fill="#fefdfb" d="M 269.5,281.5 C 270.333,347.999 270.833,414.665 271,481.5C 271.838,480.001 272.671,479.668 273.5,480.5C 272.5,481.833 271.5,483.167 270.5,484.5C 269.501,417.002 269.167,349.335 269.5,281.5 Z"/></g>
<g><path style="opacity:1" fill="#919aa1" d="M 186.5,282.5 C 213.995,281.502 241.662,281.169 269.5,281.5C 269.167,349.335 269.501,417.002 270.5,484.5C 270.167,485.5 269.5,486.167 268.5,486.5C 268.5,418.5 268.5,350.5 268.5,282.5C 241.167,282.5 213.833,282.5 186.5,282.5 Z"/></g>
<g><path style="opacity:1" fill="#0c1323" d="M 746.5,373.5 C 732.414,403.003 717.247,432.003 701,460.5C 700.601,460.272 700.435,459.938 700.5,459.5C 715.328,430.508 730.661,401.841 746.5,373.5 Z"/></g>
<g><path style="opacity:1" fill="#122c46" d="M 267.5,486.5 C 266.501,419.335 266.168,352.002 266.5,284.5C 240.5,284.5 214.5,284.5 188.5,284.5C 188.833,432.334 188.5,580.001 187.5,727.5C 187.5,579.5 187.5,431.5 187.5,283.5C 214.167,283.5 240.833,283.5 267.5,283.5C 267.5,351.167 267.5,418.833 267.5,486.5 Z"/></g>
<g><path style="opacity:1" fill="#000006" d="M 186.5,282.5 C 213.833,282.5 241.167,282.5 268.5,282.5C 268.5,350.5 268.5,418.5 268.5,486.5C 268.167,486.5 267.833,486.5 267.5,486.5C 267.5,418.833 267.5,351.167 267.5,283.5C 240.833,283.5 214.167,283.5 187.5,283.5C 187.5,431.5 187.5,579.5 187.5,727.5C 213.995,728.498 240.661,728.831 267.5,728.5C 267.167,653.665 267.501,578.998 268.5,504.5C 268.5,579.5 268.5,654.5 268.5,729.5C 241.167,729.5 213.833,729.5 186.5,729.5C 186.5,580.5 186.5,431.5 186.5,282.5 Z"/></g>
<g><path style="opacity:1" fill="#e3e4e4" d="M 268.5,504.5 C 269.974,505.436 270.974,506.77 271.5,508.5C 270.503,582.429 270.17,656.429 270.5,730.5C 241.759,730.833 213.759,730.499 186.5,729.5C 213.833,729.5 241.167,729.5 268.5,729.5C 268.5,654.5 268.5,579.5 268.5,504.5 Z"/></g>
<g><path style="opacity:1" fill="#fefefc" d="M 739.5,548.5 C 740.043,548.56 740.376,548.893 740.5,549.5C 739.837,609.627 739.17,669.627 738.5,729.5C 738.5,670.167 738.5,610.833 738.5,551.5C 738.557,550.391 738.89,549.391 739.5,548.5 Z"/></g>
<g><path style="opacity:1" fill="#000005" d="M 659.5,549.5 C 660.499,608.998 660.832,668.664 660.5,728.5C 685.833,728.5 711.167,728.5 736.5,728.5C 736.167,668.762 736.5,609.762 737.5,551.5C 737.5,610.833 737.5,670.167 737.5,729.5C 711.5,729.5 685.5,729.5 659.5,729.5C 659.5,669.5 659.5,609.5 659.5,549.5 Z"/></g>
<g><path style="opacity:1" fill="#dcdedd" d="M 655.5,543.5 C 656.351,545.882 657.684,547.882 659.5,549.5C 659.5,609.5 659.5,669.5 659.5,729.5C 685.5,729.5 711.5,729.5 737.5,729.5C 737.5,670.167 737.5,610.833 737.5,551.5C 737.833,551.5 738.167,551.5 738.5,551.5C 738.5,610.833 738.5,670.167 738.5,729.5C 711.672,730.498 684.672,730.831 657.5,730.5C 657.667,670.166 657.5,609.832 657,549.5C 656.167,547.833 655.333,546.167 654.5,544.5C 654.624,543.893 654.957,543.56 655.5,543.5 Z"/></g>
<g><path style="opacity:1" fill="#000314" d="M 549.5,725.5 C 550.962,726.458 552.295,727.624 553.5,729C 516.664,729.831 479.998,729.664 443.5,728.5C 479.168,728.667 514.835,728.5 550.5,728C 549.748,727.329 549.414,726.496 549.5,725.5 Z"/></g>
</svg>
